<svg xmlns="http://www.w3.org/2000/svg" viewBox="0 0 64 64" width="64" height="64">

  <!-- Background -->
  <rect width="64" height="64" rx="0" fill="#0a0a0d"/>
  <rect width="64" height="64" rx="0" fill="none" stroke="#d4ff3a" stroke-width="1"/>

  <!-- Task row 1: complete -->
  <rect x="10" y="16" width="44" height="10" fill="#111114"/>
  <rect x="10" y="16" width="3" height="10" fill="#d4ff3a"/>
  <rect x="15" y="19" width="6" height="6" fill="#d4ff3a"/>
  <polyline points="16.2,22 17.8,23.8 21,20" fill="none" stroke="#0a0a0d" stroke-width="1.5" stroke-linecap="square" stroke-linejoin="miter"/>
  <rect x="24" y="20" width="20" height="2" fill="#3f3f46"/>

  <!-- Task row 2: complete -->
  <rect x="10" y="29" width="44" height="10" fill="#111114"/>
  <rect x="10" y="29" width="3" height="10" fill="#d4ff3a"/>
  <rect x="15" y="32" width="6" height="6" fill="#d4ff3a"/>
  <polyline points="16.2,35 17.8,36.8 21,33" fill="none" stroke="#0a0a0d" stroke-width="1.5" stroke-linecap="square" stroke-linejoin="miter"/>
  <rect x="24" y="33" width="14" height="2" fill="#3f3f46"/>

  <!-- Task row 3: pending -->
  <rect x="10" y="42" width="44" height="10" fill="#111114"/>
  <rect x="10" y="42" width="3" height="10" fill="#27272a"/>
  <rect x="15" y="45" width="6" height="6" fill="none" stroke="#3f3f46" stroke-width="1"/>
  <rect x="24" y="46" width="18" height="2" fill="#27272a"/>

  <!-- Progress bar -->
  <rect x="10" y="56" width="44" height="2" fill="#1e1e22"/>
  <rect x="10" y="56" width="30" height="2" fill="#d4ff3a"/>

</svg>
